<svg xmlns="http://www.w3.org/2000/svg" width="1280" height="844" viewBox="0 0 1280 844" font-family="'Inter',system-ui,'Segoe UI',Arial,sans-serif"><defs><filter id="grain" x="0" y="0" width="100%" height="100%"><feTurbulence type="fractalNoise" baseFrequency="0.9" numOctaves="2" stitchTiles="stitch"/><feColorMatrix type="saturate" values="0"/></filter><filter id="blur6"><feGaussianBlur stdDeviation="6"/></filter><filter id="blur14"><feGaussianBlur stdDeviation="14"/></filter><filter id="softshadow" x="-10%" y="-20%" width="120%" height="150%"><feDropShadow dx="0" dy="6" stdDeviation="10" flood-color="#000" flood-opacity="0.6"/></filter><linearGradient id="g1" x1="0" y1="0" x2="0" y2="1"><stop offset="0" stop-color="#020309"/><stop offset="0.6" stop-color="#070a1c"/><stop offset="1" stop-color="#101538"/></linearGradient><radialGradient id="pl2" cx="0.3" cy="0.3" r="0.85"><stop offset="0" stop-color="#2a5c8a"/><stop offset="0.5" stop-color="#143a63"/><stop offset="0.85" stop-color="#071a36"/><stop offset="1" stop-color="#03091a"/></radialGradient><radialGradient id="rim3" cx="0.3" cy="0.3" r="0.9"><stop offset="0.86" stop-color="#9fd0ff" stop-opacity="0"/><stop offset="0.97" stop-color="#9fd0ff" stop-opacity="0.5"/><stop offset="1" stop-color="#9fd0ff" stop-opacity="0"/></radialGradient><radialGradient id="atm5"><stop offset="0.9" stop-color="#6fa8ff" stop-opacity="0"/><stop offset="0.95" stop-color="#6fa8ff" stop-opacity="0.18"/><stop offset="1" stop-color="#6fa8ff" stop-opacity="0"/></radialGradient><clipPath id="clip4"><circle cx="640" cy="1440" r="1360"/></clipPath><linearGradient id="g6" x1="0" y1="0" x2="0" y2="1"><stop offset="0" stop-color="#9fd0ff" stop-opacity="0"/><stop offset="0.12" stop-color="#7fb4e8" stop-opacity="0.55"/><stop offset="0.5" stop-color="#c9a08a" stop-opacity="0.75"/><stop offset="1" stop-color="#e8a070" stop-opacity="0.95"/></linearGradient><radialGradient id="gl7"><stop offset="0" stop-color="#ffe2b0" stop-opacity="0.7"/><stop offset="0.4" stop-color="#ffe2b0" stop-opacity="0.315"/><stop offset="1" stop-color="#ffe2b0" stop-opacity="0"/></radialGradient><radialGradient id="gl8"><stop offset="0" stop-color="#ffe2b0" stop-opacity="0.9"/><stop offset="0.4" stop-color="#ffe2b0" stop-opacity="0.405"/><stop offset="1" stop-color="#ffe2b0" stop-opacity="0"/></radialGradient><radialGradient id="vig11" cx="0.5" cy="0.5" r="0.75"><stop offset="0.55" stop-color="#000" stop-opacity="0"/><stop offset="1" stop-color="#000" stop-opacity="0.5"/></radialGradient><clipPath id="dev"><rect x="0" y="0" width="1280" height="800"/></clipPath></defs><rect x="0" y="0" width="1280" height="844" fill="#1b1b1f"/><g clip-path="url(#dev)"><rect x="0" y="0" width="1280" height="400" fill="url(#g1)"/><g opacity="0.5"><circle cx="305.6" cy="292.3" r="1.0" fill="#fff" opacity="0.81"/><circle cx="63.2" cy="273.9" r="0.7" fill="#fff" opacity="0.28"/><circle cx="88.0" cy="314.9" r="1.3" fill="#fff" opacity="0.57"/><circle cx="578.4" cy="175.3" r="0.9" fill="#fff" opacity="0.72"/><circle cx="998.2" cy="133.8" r="0.8" fill="#fff" opacity="0.76"/><circle cx="464.0" cy="154.1" r="0.5" fill="#fff" opacity="0.70"/><circle cx="1067.8" cy="114.6" r="0.6" fill="#fff" opacity="0.84"/><circle cx="156.2" cy="145.5" r="0.8" fill="#fff" opacity="0.31"/><circle cx="146.0" cy="198.9" r="1.1" fill="#fff" opacity="0.30"/><circle cx="775.1" cy="296.4" r="0.6" fill="#fff" opacity="0.60"/><circle cx="451.5" cy="100.1" r="0.9" fill="#fff" opacity="0.68"/><circle cx="396.5" cy="50.6" r="1.2" fill="#fff" opacity="0.63"/><circle cx="485.5" cy="318.8" r="0.8" fill="#fff" opacity="0.36"/><circle cx="324.7" cy="294.6" r="0.9" fill="#fff" opacity="0.55"/><circle cx="223.9" cy="138.9" r="0.6" fill="#fff" opacity="0.25"/><circle cx="885.3" cy="243.2" r="0.5" fill="#fff" opacity="0.58"/><circle cx="949.6" cy="282.5" r="0.7" fill="#fff" opacity="0.49"/><circle cx="817.1" cy="265.2" r="0.9" fill="#fff" opacity="0.54"/><circle cx="1005.7" cy="306.3" r="0.7" fill="#fff" opacity="0.78"/><circle cx="265.1" cy="88.7" r="1.3" fill="#fff" opacity="0.68"/><circle cx="267.3" cy="16.7" r="0.7" fill="#fff" opacity="0.75"/><circle cx="972.8" cy="67.4" r="0.9" fill="#fff" opacity="0.70"/><circle cx="534.2" cy="105.6" r="0.7" fill="#fff" opacity="0.37"/><circle cx="1114.6" cy="65.4" r="1.0" fill="#fff" opacity="0.67"/><circle cx="563.7" cy="85.9" r="0.9" fill="#fff" opacity="0.45"/><circle cx="128.6" cy="123.5" r="0.8" fill="#fff" opacity="0.70"/><circle cx="1102.7" cy="247.6" r="0.6" fill="#fff" opacity="0.66"/><circle cx="748.8" cy="24.4" r="1.1" fill="#fff" opacity="0.74"/><circle cx="720.4" cy="272.7" r="0.5" fill="#fff" opacity="0.70"/><circle cx="557.7" cy="318.4" r="1.2" fill="#fff" opacity="0.37"/><circle cx="360.8" cy="271.3" r="1.1" fill="#fff" opacity="0.84"/><circle cx="1218.8" cy="9.4" r="1.2" fill="#fff" opacity="0.39"/><circle cx="1255.2" cy="77.1" r="1.2" fill="#fff" opacity="0.75"/><circle cx="829.3" cy="180.0" r="0.7" fill="#fff" opacity="0.36"/><circle cx="34.4" cy="3.1" r="0.5" fill="#fff" opacity="0.71"/><circle cx="112.1" cy="117.2" r="0.8" fill="#fff" opacity="0.85"/><circle cx="242.0" cy="177.2" r="0.9" fill="#fff" opacity="0.49"/><circle cx="688.9" cy="18.7" r="1.0" fill="#fff" opacity="0.39"/><circle cx="565.7" cy="57.6" r="1.1" fill="#fff" opacity="0.70"/><circle cx="552.3" cy="37.4" r="1.2" fill="#fff" opacity="0.30"/><circle cx="751.1" cy="48.8" r="1.2" fill="#fff" opacity="0.47"/><circle cx="818.5" cy="148.0" r="0.6" fill="#fff" opacity="0.46"/><circle cx="873.0" cy="96.9" r="0.4" fill="#fff" opacity="0.72"/><circle cx="719.5" cy="192.1" r="1.1" fill="#fff" opacity="0.57"/><circle cx="369.0" cy="65.6" r="1.3" fill="#fff" opacity="0.72"/><circle cx="36.0" cy="104.1" r="0.9" fill="#fff" opacity="0.29"/><circle cx="671.0" cy="291.2" r="0.8" fill="#fff" opacity="0.80"/><circle cx="9.7" cy="316.6" r="0.6" fill="#fff" opacity="0.51"/><circle cx="1198.5" cy="78.9" r="0.5" fill="#fff" opacity="0.82"/><circle cx="175.8" cy="106.0" r="0.4" fill="#fff" opacity="0.57"/><circle cx="230.5" cy="218.1" r="1.2" fill="#fff" opacity="0.51"/><circle cx="75.5" cy="278.7" r="0.8" fill="#fff" opacity="0.26"/><circle cx="658.5" cy="238.1" r="0.7" fill="#fff" opacity="0.49"/><circle cx="728.5" cy="275.7" r="1.3" fill="#fff" opacity="0.62"/><circle cx="138.7" cy="3.5" r="0.6" fill="#fff" opacity="0.81"/><circle cx="745.5" cy="259.2" r="1.0" fill="#fff" opacity="0.69"/><circle cx="204.4" cy="210.3" r="0.6" fill="#fff" opacity="0.28"/><circle cx="1160.9" cy="177.6" r="0.7" fill="#fff" opacity="0.77"/><circle cx="1058.9" cy="180.9" r="0.4" fill="#fff" opacity="0.50"/><circle cx="1064.7" cy="291.6" r="1.1" fill="#fff" opacity="0.42"/><circle cx="1247.6" cy="0.2" r="1.3" fill="#fff" opacity="0.39"/><circle cx="676.0" cy="279.4" r="0.8" fill="#fff" opacity="0.64"/><circle cx="930.7" cy="271.4" r="0.8" fill="#fff" opacity="0.41"/><circle cx="334.3" cy="122.5" r="0.8" fill="#fff" opacity="0.68"/><circle cx="1075.9" cy="130.7" r="0.5" fill="#fff" opacity="0.68"/><circle cx="533.1" cy="211.3" r="1.1" fill="#fff" opacity="0.35"/><circle cx="1130.2" cy="244.2" r="0.8" fill="#fff" opacity="0.50"/><circle cx="431.7" cy="30.8" r="0.7" fill="#fff" opacity="0.52"/><circle cx="293.2" cy="222.3" r="0.5" fill="#fff" opacity="0.75"/><circle cx="1247.9" cy="226.3" r="0.4" fill="#fff" opacity="0.61"/><circle cx="1109.3" cy="56.2" r="1.1" fill="#fff" opacity="0.47"/><circle cx="450.5" cy="48.6" r="1.1" fill="#fff" opacity="0.47"/><circle cx="19.9" cy="133.2" r="0.8" fill="#fff" opacity="0.54"/><circle cx="1072.1" cy="100.3" r="1.0" fill="#fff" opacity="0.30"/><circle cx="716.4" cy="152.2" r="0.9" fill="#fff" opacity="0.37"/><circle cx="300.9" cy="140.8" r="1.2" fill="#fff" opacity="0.77"/><circle cx="372.4" cy="139.6" r="0.6" fill="#fff" opacity="0.40"/><circle cx="873.8" cy="272.2" r="1.2" fill="#fff" opacity="0.71"/><circle cx="1236.2" cy="44.7" r="1.0" fill="#fff" opacity="0.68"/><circle cx="468.8" cy="64.9" r="1.1" fill="#fff" opacity="0.81"/><circle cx="223.5" cy="155.4" r="0.6" fill="#fff" opacity="0.49"/><circle cx="57.3" cy="103.4" r="0.6" fill="#fff" opacity="0.83"/><circle cx="29.6" cy="94.0" r="1.1" fill="#fff" opacity="0.54"/><circle cx="496.8" cy="191.4" r="1.1" fill="#fff" opacity="0.36"/><circle cx="802.2" cy="232.5" r="0.9" fill="#fff" opacity="0.27"/><circle cx="163.2" cy="298.2" r="1.1" fill="#fff" opacity="0.33"/><circle cx="533.7" cy="88.4" r="1.2" fill="#fff" opacity="0.75"/><circle cx="23.6" cy="83.6" r="0.7" fill="#fff" opacity="0.82"/><circle cx="333.8" cy="100.3" r="0.7" fill="#fff" opacity="0.27"/><circle cx="788.3" cy="203.9" r="0.8" fill="#fff" opacity="0.83"/><circle cx="501.9" cy="63.7" r="0.8" fill="#fff" opacity="0.27"/><circle cx="1104.1" cy="277.4" r="0.8" fill="#fff" opacity="0.43"/><circle cx="199.7" cy="306.4" r="1.2" fill="#fff" opacity="0.41"/><circle cx="625.7" cy="230.3" r="0.7" fill="#fff" opacity="0.54"/><circle cx="723.8" cy="163.9" r="1.3" fill="#fff" opacity="0.39"/><circle cx="289.4" cy="221.8" r="1.2" fill="#fff" opacity="0.36"/><circle cx="857.8" cy="155.8" r="0.5" fill="#fff" opacity="0.54"/><circle cx="1064.7" cy="110.3" r="0.6" fill="#fff" opacity="0.27"/><circle cx="945.2" cy="180.5" r="0.5" fill="#fff" opacity="0.62"/><circle cx="1187.1" cy="58.4" r="1.2" fill="#fff" opacity="0.49"/><circle cx="321.9" cy="131.6" r="0.9" fill="#fff" opacity="0.56"/><circle cx="830.8" cy="39.4" r="0.6" fill="#fff" opacity="0.48"/><circle cx="908.4" cy="52.9" r="1.3" fill="#fff" opacity="0.52"/><circle cx="140.9" cy="161.8" r="0.8" fill="#fff" opacity="0.67"/><circle cx="322.4" cy="154.6" r="0.7" fill="#fff" opacity="0.44"/><circle cx="865.9" cy="216.0" r="0.5" fill="#fff" opacity="0.73"/><circle cx="111.6" cy="48.3" r="0.8" fill="#fff" opacity="0.28"/><circle cx="70.6" cy="39.3" r="0.5" fill="#fff" opacity="0.78"/><circle cx="945.8" cy="83.4" r="0.9" fill="#fff" opacity="0.81"/><circle cx="248.1" cy="61.5" r="1.0" fill="#fff" opacity="0.32"/><circle cx="129.5" cy="301.9" r="1.0" fill="#fff" opacity="0.26"/><circle cx="1272.5" cy="110.9" r="1.2" fill="#fff" opacity="0.74"/><circle cx="394.8" cy="214.6" r="0.9" fill="#fff" opacity="0.65"/><circle cx="1071.5" cy="319.7" r="1.0" fill="#fff" opacity="0.70"/><circle cx="533.1" cy="36.4" r="0.4" fill="#fff" opacity="0.33"/><circle cx="1179.0" cy="289.6" r="1.1" fill="#fff" opacity="0.54"/><circle cx="1148.4" cy="182.3" r="0.8" fill="#fff" opacity="0.32"/><circle cx="526.9" cy="37.5" r="1.1" fill="#fff" opacity="0.72"/><circle cx="1209.4" cy="302.6" r="1.3" fill="#fff" opacity="0.56"/><circle cx="518.7" cy="161.2" r="1.1" fill="#fff" opacity="0.31"/></g><g opacity="1"><circle cx="640" cy="1440" r="1468.8000000000002" fill="url(#atm5)"/><circle cx="640" cy="1440" r="1360" fill="url(#pl2)"/><g clip-path="url(#clip4)"><ellipse cx="655.3" cy="1660.7" rx="217.7" ry="120.9" fill="#2f3b33" opacity="0.7" transform="rotate(0 655.3 1660.7)"/><ellipse cx="274.9" cy="1756.5" rx="106.2" ry="59.0" fill="#2f3b33" opacity="0.7" transform="rotate(53 274.9 1756.5)"/><ellipse cx="842.9" cy="1556.0" rx="202.7" ry="112.6" fill="#2f3b33" opacity="0.7" transform="rotate(54 842.9 1556.0)"/><ellipse cx="145.4" cy="1756.8" rx="82.5" ry="45.8" fill="#2f3b33" opacity="0.7" transform="rotate(43 145.4 1756.8)"/><ellipse cx="1148.7" cy="1730.4" rx="83.9" ry="46.6" fill="#2f3b33" opacity="0.7" transform="rotate(38 1148.7 1730.4)"/><ellipse cx="614.6" cy="722.9" rx="137.0" ry="76.1" fill="#2f3b33" opacity="0.7" transform="rotate(54 614.6 722.9)"/><ellipse cx="987.2" cy="1592.7" rx="128.9" ry="71.6" fill="#2f3b33" opacity="0.7" transform="rotate(31 987.2 1592.7)"/><ellipse cx="596.6" cy="643.8" rx="166.2" ry="92.3" fill="#2f3b33" opacity="0.7" transform="rotate(25 596.6 643.8)"/><ellipse cx="1595.0" cy="1676.9" rx="156.8" ry="87.1" fill="#2f3b33" opacity="0.7" transform="rotate(56 1595.0 1676.9)"/><ellipse cx="323.4" cy="2127.1" rx="187.7" ry="39.1" fill="#fff" opacity="0.14" filter="url(#blur6)"/><ellipse cx="1403.2" cy="754.7" rx="199.2" ry="41.5" fill="#fff" opacity="0.14" filter="url(#blur6)"/><ellipse cx="-59.6" cy="679.5" rx="365.9" ry="76.2" fill="#fff" opacity="0.14" filter="url(#blur6)"/><ellipse cx="1118.7" cy="2158.0" rx="206.1" ry="42.9" fill="#fff" opacity="0.14" filter="url(#blur6)"/><ellipse cx="1531.5" cy="1299.1" rx="503.6" ry="104.9" fill="#fff" opacity="0.14" filter="url(#blur6)"/><ellipse cx="1057.8" cy="1127.5" rx="352.8" ry="73.5" fill="#fff" opacity="0.14" filter="url(#blur6)"/><ellipse cx="861.5" cy="1864.5" rx="204.4" ry="42.6" fill="#fff" opacity="0.14" filter="url(#blur6)"/><ellipse cx="-278.0" cy="1056.1" rx="277.7" ry="57.9" fill="#fff" opacity="0.14" filter="url(#blur6)"/><ellipse cx="1726.2" cy="1341.8" rx="219.5" ry="45.7" fill="#fff" opacity="0.14" filter="url(#blur6)"/><ellipse cx="980.5" cy="993.5" rx="241.3" ry="50.3" fill="#fff" opacity="0.14" filter="url(#blur6)"/></g><circle cx="640" cy="1440" r="1360" fill="url(#rim3)"/></g><rect x="0" y="80" width="1280" height="720" fill="url(#g6)"/><circle cx="921.5999999999999" cy="320" r="144" fill="url(#gl9)"/><circle cx="921.5999999999999" cy="320" r="57.6" fill="url(#gl10)"/><circle cx="921.5999999999999" cy="320" r="36" fill="#ffe2b0"/><ellipse cx="640" cy="440.00000000000006" rx="640" ry="26" fill="#fff" opacity="0.35" filter="url(#blur14)"/><ellipse cx="640" cy="560" rx="512" ry="26" fill="#fff" opacity="0.45" filter="url(#blur14)"/><ellipse cx="1024" cy="720" rx="640" ry="26" fill="#fff" opacity="0.6" filter="url(#blur14)"/><rect x="0" y="0" width="1280" height="800" fill="url(#vig11)"/><rect x="0" y="0" width="1280" height="800" filter="url(#grain)" opacity="0.16" style="mix-blend-mode:overlay"/><text x="640" y="48" text-anchor="middle" font-family="'Inter',system-ui,'Segoe UI',Arial,sans-serif" font-weight="600" font-size="11" letter-spacing="1.6" fill="rgba(255,255,255,0.7)" opacity="1" style="text-transform:uppercase">TÍTULO, BOTONES Y PISTA: OPACIDAD 0 DESDE S = 0,15 · EXPOSICIÓN SUBE AL CRUZAR LA ATMÓSFERA</text></g><text x="14" y="828" font-size="14" font-weight="600" fill="#e6e6ea">02 · Zambullida · 1280×800 · s ≈ 0,8 · el limbo del planeta arriba, el sol asoma, bruma y velo de nubes finas; la UI ya se fue</text></svg>